<svg xmlns="http://www.w3.org/2000/svg" viewBox="0 0 900 560" role="img" aria-labelledby="t d"><title id="t">Vaishnavi sliding window illustration</title><desc id="d">Premium two-track sliding uPVC window with balcony view</desc><defs><linearGradient id="sky" x1="0" y1="0" x2="1" y2="1"><stop stop-color="#dff3ef"/><stop offset=".55" stop-color="#a7cfc5"/><stop offset="1" stop-color="#315b54"/></linearGradient><linearGradient id="wall" x1="0" y1="0" x2="1" y2="1"><stop stop-color="#fff9ef"/><stop offset="1" stop-color="#e8d5b4"/></linearGradient></defs><rect width="900" height="560" fill="url(#wall)"/><circle cx="780" cy="70" r="170" fill="#c69b45" opacity=".18"/><rect x="120" y="78" width="660" height="365" rx="22" fill="#0d3b35"/><rect x="145" y="103" width="610" height="315" rx="12" fill="#f8f2e7"/><rect x="170" y="128" width="270" height="265" rx="6" fill="url(#sky)"/><rect x="460" y="128" width="270" height="265" rx="6" fill="url(#sky)"/><path d="M170 345c75-58 142-63 270-10v58H170zM460 335c80-38 163-33 270 24v34H460z" fill="#123f39" opacity=".38"/><rect x="433" y="111" width="24" height="300" rx="7" fill="#c69b45"/><rect x="158" y="248" width="584" height="18" rx="9" fill="#0d3b35" opacity=".88"/><rect x="210" y="452" width="480" height="22" rx="11" fill="#a7543c" opacity=".9"/><text x="64" y="505" font-family="Georgia,serif" font-size="46" fill="#0d3b35" font-weight="700">Sliding Windows</text><text x="66" y="535" font-family="Arial,sans-serif" font-size="18" letter-spacing="3" fill="#a7543c">SPACE EFFICIENT · CLEAN TRACKS · BALCONY READY</text></svg>